<svg width="177" height="33" viewBox="0 0 177 33" fill="none" xmlns="http://www.w3.org/2000/svg">
<path d="M35.4446 0H16.282C7.3039 0 0 7.25192 0 16.1643V32.3286H35.4446C44.4228 32.3286 51.7267 25.0767 51.7267 16.1643C51.7267 7.25192 44.4243 0 35.4446 0ZM45.2484 16.6627C45.2148 17.3217 45.1123 17.9639 44.9503 18.5816C44.909 18.736 44.8662 18.8889 44.8172 19.0403C44.7209 19.343 44.6108 19.6412 44.4855 19.9302C44.4228 20.0754 44.357 20.2176 44.2882 20.3598C44.1506 20.6427 43.9977 20.9179 43.8341 21.1839C43.5054 21.7175 43.1262 22.2175 42.7027 22.6777C42.4917 22.9071 42.2684 23.1272 42.036 23.3367C41.6874 23.6502 41.3144 23.9391 40.923 24.2021C40.5315 24.4636 40.1187 24.699 39.6906 24.9039C39.5469 24.9727 39.4032 25.0369 39.2564 25.0981C38.9628 25.2219 38.6631 25.3305 38.3558 25.4253C37.8956 25.5675 37.4216 25.6776 36.9354 25.751C36.6113 25.7999 36.2825 25.8335 35.9492 25.8503C35.7825 25.8595 35.6144 25.8626 35.4462 25.8626H16.2836C10.8848 25.8626 6.46755 21.4974 6.46755 16.1643C6.46755 15.9976 6.47214 15.8325 6.47979 15.6674C6.51342 15.0084 6.61587 14.3662 6.77794 13.7485C6.81922 13.5941 6.86356 13.4412 6.91096 13.2898C7.00728 12.9871 7.11737 12.6889 7.24274 12.4C7.30543 12.2547 7.37118 12.1125 7.43998 11.9703C7.57759 11.6875 7.73049 11.4123 7.89409 11.1462C8.22282 10.6126 8.602 10.1126 9.02553 9.6524C9.23652 9.42306 9.45975 9.20289 9.69216 8.99342C10.0408 8.67998 10.4138 8.391 10.8052 8.12802C11.1967 7.86656 11.6095 7.6311 12.0376 7.42622C12.1813 7.35742 12.325 7.2932 12.4718 7.23204C12.7654 7.10819 13.0651 6.99964 13.3724 6.90484C13.8326 6.76265 14.3066 6.65256 14.7928 6.57917C15.117 6.53024 15.4457 6.49661 15.779 6.47979C15.9457 6.47061 16.1138 6.46755 16.282 6.46755H35.4446C40.8434 6.46755 45.2606 10.8328 45.2606 16.1658C45.2606 16.3325 45.2561 16.4976 45.2484 16.6627Z" fill="#2534C1"/>
<path d="M16.8553 19.3961C18.6404 19.3961 20.0875 17.949 20.0875 16.1639C20.0875 14.3788 18.6404 12.9316 16.8553 12.9316C15.0702 12.9316 13.623 14.3788 13.623 16.1639C13.623 17.949 15.0702 19.3961 16.8553 19.3961Z" fill="#00E5E5"/>
<path d="M35.0455 19.3961C36.8306 19.3961 38.2777 17.949 38.2777 16.1639C38.2777 14.3788 36.8306 12.9316 35.0455 12.9316C33.2604 12.9316 31.8132 14.3788 31.8132 16.1639C31.8132 17.949 33.2604 19.3961 35.0455 19.3961Z" fill="#00E5E5"/>
<path d="M61.8271 5.89258H67.2214V28.3685H61.8271V5.89258ZM64.1711 14.4976H79.7115V19.346H64.1711V14.4976ZM76.0833 5.89258H81.4775V28.3685H76.0833V5.89258Z" fill="#2534C1"/>
<path d="M87.8349 27.6151C86.7646 26.9195 85.9619 25.9302 85.4267 24.6459C84.8916 23.3615 84.624 21.8738 84.624 20.1828C84.624 18.4918 84.8916 17.0148 85.4267 15.7518C85.9619 14.4889 86.7646 13.5042 87.8349 12.7979C88.9051 12.0915 90.2002 11.7383 91.72 11.7383C93.0685 11.7383 94.229 12.0548 95.2045 12.6847C96.1785 13.3162 96.9277 14.2641 97.4521 15.5255C97.9765 16.7885 98.238 18.3404 98.238 20.1813C98.238 20.7164 98.2273 21.1445 98.2059 21.4656C98.0989 23.0282 97.7671 24.3447 97.2105 25.4149C96.654 26.4852 95.9109 27.2925 94.9798 27.8384C94.0486 28.3842 92.9615 28.6564 91.72 28.6564C90.2002 28.6564 88.9051 28.3093 87.8349 27.6121V27.6151ZM95.8131 23.2484C96.4017 22.5313 96.6953 21.5099 96.6953 20.1828C96.6953 18.8556 96.4002 17.8389 95.8131 17.1325C95.2244 16.4261 94.3835 16.0729 93.2918 16.0729C92.2001 16.0729 91.3653 16.4261 90.7873 17.1325C90.2094 17.8389 89.9204 18.8556 89.9204 20.1828C89.9204 21.0604 90.0488 21.8096 90.3057 22.4304C90.5626 23.0512 90.9417 23.5221 91.4463 23.8432C91.9493 24.1642 92.564 24.3248 93.2933 24.3248C94.385 24.3248 95.2244 23.967 95.8146 23.2484H95.8131ZM96.6968 24.8049V15.4934L97.3711 12.0257H101.93V24.837L102.412 28.3689H97.4353L96.6968 24.8049Z" fill="#2534C1"/>
<path d="M105.944 9.20026C105.43 8.72933 105.174 8.07646 105.174 7.24164C105.174 6.40682 105.43 5.80288 105.944 5.36407C106.458 4.92525 107.218 4.70508 108.224 4.70508C109.23 4.70508 109.947 4.92525 110.439 5.36407C110.932 5.80288 111.178 6.42976 111.178 7.24164C111.178 8.05353 110.932 8.72933 110.439 9.20026C109.947 9.67118 109.209 9.90664 108.224 9.90664C107.239 9.90664 106.458 9.67118 105.944 9.20026ZM105.527 24.0344V12.0258H110.793V28.369H105.527V24.0344Z" fill="#2534C1"/>
<path d="M116.748 27.8387C115.838 27.3784 115.168 26.6506 114.742 25.6553C114.314 24.6599 114.1 23.3603 114.1 21.7549V5.41016H119.333V21.8176C119.333 22.3313 119.397 22.7487 119.526 23.0698C119.654 23.3909 119.864 23.6218 120.151 23.7609C120.44 23.9 120.841 23.9688 121.356 23.9688H122.962V28.5282H120.264C118.83 28.5282 117.658 28.2989 116.748 27.8387Z" fill="#2534C1"/>
<path d="M125.368 24.9V5.41016H130.602V24.8358L129.863 28.3677H124.886L125.368 24.9ZM132.096 27.6934C131.122 27.0512 130.377 26.0987 129.865 24.8358C129.351 23.5728 129.094 22.0209 129.094 20.18C129.094 19.7733 129.105 19.4736 129.126 19.281C129.191 17.6542 129.496 16.2735 130.042 15.139C130.588 14.0045 131.331 13.1544 132.273 12.5872C133.215 12.0199 134.328 11.737 135.612 11.737C137.111 11.737 138.395 12.0902 139.465 12.7966C140.536 13.503 141.344 14.4877 141.889 15.7506C142.434 17.0135 142.708 18.4905 142.708 20.1816C142.708 21.8726 142.434 23.3603 141.889 24.6446C141.343 25.929 140.534 26.9197 139.465 27.6139C138.395 28.3096 137.111 28.6582 135.612 28.6582C134.242 28.6582 133.07 28.3371 132.096 27.6949V27.6934ZM136.51 23.2472C137.088 22.5301 137.377 21.5087 137.377 20.1816C137.377 19.3039 137.248 18.5609 136.991 17.9493C136.734 17.3392 136.354 16.8729 135.851 16.5533C135.348 16.2322 134.732 16.0717 134.004 16.0717C132.912 16.0717 132.071 16.4249 131.482 17.1313C130.894 17.8376 130.6 18.8544 130.6 20.1816C130.6 21.0592 130.729 21.8084 130.986 22.4292C131.242 23.0499 131.632 23.5208 132.158 23.8419C132.683 24.163 133.299 24.3235 134.005 24.3235C135.097 24.3235 135.932 23.9658 136.51 23.2472Z" fill="#2534C1"/>
<path d="M148.583 27.5979C147.255 26.8915 146.26 25.8961 145.596 24.6118C144.933 23.3275 144.601 21.8505 144.601 20.1808C144.601 18.5112 144.933 17.0449 145.596 15.782C146.26 14.5191 147.255 13.5298 148.583 12.8112C149.91 12.0941 151.526 11.7363 153.431 11.7363C155.336 11.7363 156.957 12.0956 158.296 12.8112C159.634 13.5283 160.634 14.5191 161.297 15.782C161.961 17.0449 162.293 18.5112 162.293 20.1808C162.293 21.8505 161.961 23.3275 161.297 24.6118C160.634 25.8961 159.632 26.8915 158.296 27.5979C156.958 28.3043 155.336 28.6575 153.431 28.6575C151.526 28.6575 149.91 28.3043 148.583 27.5979ZM156.081 23.248C156.691 22.5309 156.996 21.5095 156.996 20.1824C156.996 19.3047 156.857 18.5617 156.579 17.9501C156.301 17.34 155.899 16.8737 155.374 16.5541C154.85 16.233 154.201 16.0725 153.431 16.0725C152.275 16.0725 151.397 16.4257 150.798 17.1321C150.199 17.8385 149.899 18.8552 149.899 20.1824C149.899 21.06 150.032 21.8092 150.3 22.43C150.567 23.0507 150.963 23.5216 151.488 23.8427C152.012 24.1638 152.66 24.3244 153.431 24.3244C154.587 24.3244 155.469 23.9666 156.081 23.248Z" fill="#2534C1"/>
<path d="M163.128 12.025H176.517V16.3275H163.128V12.025ZM169.581 27.7107C168.618 27.2719 167.884 26.5441 167.383 25.5273C166.88 24.5106 166.629 23.1467 166.629 21.4343V12.8292L168.331 7.01758H171.895V21.5306C171.895 22.0657 171.959 22.5 172.087 22.8302C172.216 23.162 172.435 23.4082 172.746 23.5687C173.057 23.7292 173.49 23.8103 174.046 23.8103H177V28.3697H173.211C171.756 28.3697 170.546 28.151 169.583 27.7107H169.581Z" fill="#2534C1"/>
</svg>
