<svg width="177" height="33" viewBox="0 0 177 33" fill="none" xmlns="http://www.w3.org/2000/svg">
<path d="M35.4446 0H16.282C7.3039 0 0 7.25048 0 16.1611V32.3222H35.4446C44.4228 32.3222 51.7267 25.0717 51.7267 16.1611C51.7267 7.25048 44.4243 0 35.4446 0ZM45.2484 16.6594C45.2148 17.3183 45.1123 17.9603 44.9503 18.5779C44.909 18.7323 44.8662 18.8852 44.8172 19.0365C44.7209 19.3392 44.6108 19.6373 44.4855 19.9262C44.4228 20.0714 44.357 20.2136 44.2882 20.3558C44.1506 20.6386 43.9977 20.9137 43.8341 21.1797C43.5054 21.7132 43.1262 22.2131 42.7027 22.6732C42.4917 22.9025 42.2684 23.1227 42.036 23.3321C41.6874 23.6455 41.3144 23.9344 40.923 24.1973C40.5315 24.4587 40.1187 24.6941 39.6906 24.899C39.5469 24.9678 39.4032 25.032 39.2564 25.0931C38.9628 25.2169 38.6631 25.3255 38.3558 25.4203C37.8956 25.5624 37.4216 25.6725 36.9354 25.7459C36.6113 25.7948 36.2825 25.8284 35.9492 25.8452C35.7825 25.8544 35.6144 25.8575 35.4462 25.8575H16.2836C10.8848 25.8575 6.46755 21.4931 6.46755 16.1611C6.46755 15.9945 6.47214 15.8294 6.47979 15.6643C6.51342 15.0054 6.61587 14.3634 6.77794 13.7458C6.81922 13.5914 6.86356 13.4385 6.91096 13.2872C7.00728 12.9845 7.11737 12.6864 7.24274 12.3975C7.30543 12.2523 7.37118 12.1101 7.43998 11.968C7.57759 11.6852 7.73049 11.41 7.89409 11.144C8.22282 10.6105 8.602 10.1106 9.02553 9.65049C9.23652 9.42119 9.45975 9.20106 9.69216 8.99164C10.0408 8.67826 10.4138 8.38934 10.8052 8.12641C11.1967 7.86501 11.6095 7.62959 12.0376 7.42475C12.1813 7.35596 12.325 7.29176 12.4718 7.23061C12.7654 7.10679 13.0651 6.99825 13.3724 6.90347C13.8326 6.76131 14.3066 6.65124 14.7928 6.57787C15.117 6.52895 15.4457 6.49532 15.779 6.4785C15.9457 6.46933 16.1138 6.46627 16.282 6.46627H35.4446C40.8434 6.46627 45.2606 10.8306 45.2606 16.1626C45.2606 16.3293 45.2561 16.4944 45.2484 16.6594Z" fill="#2534C1"/>
<path d="M16.8553 19.3929C18.6404 19.3929 20.0875 17.9461 20.0875 16.1613C20.0875 14.3765 18.6404 12.9297 16.8553 12.9297C15.0702 12.9297 13.623 14.3765 13.623 16.1613C13.623 17.9461 15.0702 19.3929 16.8553 19.3929Z" fill="#00E5E5"/>
<path d="M35.0455 19.3929C36.8306 19.3929 38.2777 17.9461 38.2777 16.1613C38.2777 14.3765 36.8306 12.9297 35.0455 12.9297C33.2604 12.9297 31.8132 14.3765 31.8132 16.1613C31.8132 17.9461 33.2604 19.3929 35.0455 19.3929Z" fill="#00E5E5"/>
<path d="M61.8271 5.89258H67.2214V28.364H61.8271V5.89258ZM64.1711 14.4959H79.7115V19.3433H64.1711V14.4959ZM76.0833 5.89258H81.4775V28.364H76.0833V5.89258Z" fill="white"/>
<path d="M87.8349 27.61C86.7646 26.9145 85.9619 25.9254 85.4267 24.6414C84.8916 23.3573 84.624 21.8699 84.624 20.1792C84.624 18.4885 84.8916 17.0118 85.4267 15.7491C85.9619 14.4864 86.7646 13.5019 87.8349 12.7957C88.9051 12.0895 90.2002 11.7363 91.72 11.7363C93.0685 11.7363 94.229 12.0528 95.2045 12.6826C96.1785 13.3139 96.9277 14.2617 97.4521 15.5228C97.9765 16.7855 98.238 18.3371 98.238 20.1776C98.238 20.7127 98.2273 21.1407 98.2059 21.4617C98.0989 23.024 97.7671 24.3402 97.2105 25.4103C96.654 26.4804 95.9109 27.2875 94.9798 27.8332C94.0486 28.379 92.9615 28.6511 91.72 28.6511C90.2002 28.6511 88.9051 28.3041 87.8349 27.607V27.61ZM95.8131 23.2442C96.4017 22.5272 96.6953 21.5061 96.6953 20.1792C96.6953 18.8523 96.4002 17.8357 95.8131 17.1295C95.2244 16.4232 94.3835 16.0701 93.2918 16.0701C92.2001 16.0701 91.3653 16.4232 90.7873 17.1295C90.2094 17.8357 89.9204 18.8523 89.9204 20.1792C89.9204 21.0566 90.0488 21.8057 90.3057 22.4263C90.5626 23.047 90.9417 23.5178 91.4463 23.8388C91.9493 24.1598 92.564 24.3203 93.2933 24.3203C94.385 24.3203 95.2244 23.9626 95.8146 23.2442H95.8131ZM96.6968 24.8003V15.4907L97.3711 12.0237H101.93V24.8324L102.412 28.3637H97.4353L96.6968 24.8003Z" fill="white"/>
<path d="M105.944 9.19741C105.43 8.72658 105.173 8.07384 105.173 7.23919C105.173 6.40453 105.43 5.80071 105.944 5.36198C106.458 4.92325 107.218 4.70312 108.224 4.70312C109.23 4.70312 109.947 4.92325 110.439 5.36198C110.931 5.80071 111.178 6.42746 111.178 7.23919C111.178 8.05091 110.931 8.72658 110.439 9.19741C109.947 9.66824 109.208 9.90366 108.224 9.90366C107.239 9.90366 106.458 9.66824 105.944 9.19741ZM105.527 24.0286V12.0224H110.792V28.3623H105.527V24.0286Z" fill="white"/>
<path d="M116.748 27.8342C115.838 27.3741 115.168 26.6464 114.742 25.6513C114.314 24.6561 114.1 23.3567 114.1 21.7516V5.41016H119.333V21.8143C119.333 22.3279 119.397 22.7453 119.526 23.0663C119.654 23.3873 119.864 23.6181 120.151 23.7573C120.44 23.8964 120.841 23.9652 121.356 23.9652H122.962V28.5236H120.264C118.83 28.5236 117.658 28.2943 116.748 27.8342Z" fill="white"/>
<path d="M125.368 24.8961V5.41016H130.602V24.8319L129.863 28.3631H124.886L125.368 24.8961ZM132.096 27.689C131.122 27.047 130.377 26.0946 129.865 24.8319C129.351 23.5692 129.094 22.0176 129.094 20.1771C129.094 19.7705 129.105 19.4709 129.126 19.2782C129.191 17.6517 129.496 16.2714 130.042 15.1371C130.588 14.0028 131.331 13.1529 132.273 12.5857C133.215 12.0186 134.328 11.7358 135.612 11.7358C137.111 11.7358 138.395 12.0889 139.465 12.7952C140.536 13.5014 141.344 14.4859 141.889 15.7486C142.434 17.0112 142.708 18.4879 142.708 20.1786C142.708 21.8693 142.434 23.3567 141.889 24.6408C141.343 25.9249 140.534 26.9155 139.465 27.6095C138.395 28.305 137.111 28.6536 135.612 28.6536C134.242 28.6536 133.07 28.3326 132.096 27.6905V27.689ZM136.51 23.2436C137.088 22.5267 137.377 21.5055 137.377 20.1786C137.377 19.3012 137.248 18.5582 136.991 17.9468C136.734 17.3368 136.354 16.8706 135.851 16.5511C135.348 16.2301 134.732 16.0696 134.004 16.0696C132.912 16.0696 132.071 16.4227 131.482 17.1289C130.894 17.8352 130.6 18.8518 130.6 20.1786C130.6 21.0561 130.729 21.8051 130.986 22.4258C131.242 23.0464 131.632 23.5173 132.158 23.8383C132.683 24.1593 133.299 24.3198 134.005 24.3198C135.097 24.3198 135.932 23.9621 136.51 23.2436Z" fill="white"/>
<path d="M148.583 27.5928C147.255 26.8866 146.26 25.8914 145.596 24.6073C144.933 23.3232 144.601 21.8465 144.601 20.1772C144.601 18.5079 144.933 17.0419 145.596 15.7792C146.26 14.5166 147.255 13.5275 148.583 12.809C149.91 12.0921 151.526 11.7344 153.431 11.7344C155.336 11.7344 156.957 12.0936 158.296 12.809C159.634 13.526 160.634 14.5166 161.297 15.7792C161.961 17.0419 162.293 18.5079 162.293 20.1772C162.293 21.8465 161.961 23.3232 161.297 24.6073C160.634 25.8914 159.632 26.8866 158.296 27.5928C156.958 28.299 155.336 28.6522 153.431 28.6522C151.526 28.6522 149.91 28.299 148.583 27.5928ZM156.081 23.2437C156.691 22.5268 156.996 21.5056 156.996 20.1787C156.996 19.3013 156.857 18.5584 156.579 17.9469C156.301 17.337 155.899 16.8707 155.374 16.5512C154.85 16.2302 154.201 16.0697 153.431 16.0697C152.275 16.0697 151.397 16.4228 150.798 17.1291C150.199 17.8353 149.899 18.8519 149.899 20.1787C149.899 21.0562 150.032 21.8053 150.3 22.4259C150.567 23.0465 150.963 23.5174 151.488 23.8384C152.012 24.1594 152.66 24.3199 153.431 24.3199C154.587 24.3199 155.469 23.9622 156.081 23.2437Z" fill="white"/>
<path d="M163.128 12.024H176.517V16.3257H163.128V12.024ZM169.581 27.7066C168.618 27.2679 167.884 26.5402 167.383 25.5237C166.88 24.5071 166.629 23.1435 166.629 21.4314V12.8281L168.331 7.01758H171.895V21.5277C171.895 22.0628 171.959 22.4969 172.087 22.8271C172.216 23.1588 172.435 23.4049 172.746 23.5654C173.057 23.7259 173.49 23.807 174.046 23.807H177V28.3655H173.211C171.756 28.3655 170.546 28.1469 169.583 27.7066H169.581Z" fill="white"/>
</svg>
